<svg xmlns="http://www.w3.org/2000/svg" xmlns:xlink="http://www.w3.org/1999/xlink" width="583" height="496" viewBox="0 0 583 496">
  <defs>
    <filter id="Rectangle_82" x="0" y="0" width="583" height="496" filterUnits="userSpaceOnUse">
      <feOffset dy="3" input="SourceAlpha"/>
      <feGaussianBlur stdDeviation="7.5" result="blur"/>
      <feFlood flood-opacity="0.161"/>
      <feComposite operator="in" in2="blur"/>
      <feComposite in="SourceGraphic"/>
    </filter>
    <filter id="Rectangle_138" x="177.5" y="399.947" width="230" height="54" filterUnits="userSpaceOnUse">
      <feOffset dy="3" input="SourceAlpha"/>
      <feGaussianBlur stdDeviation="3" result="blur-2"/>
      <feFlood flood-opacity="0.161"/>
      <feComposite operator="in" in2="blur-2"/>
      <feComposite in="SourceGraphic"/>
    </filter>
  </defs>
  <g id="Group_767" data-name="Group 767" transform="translate(-428.5 -139.5)">
    <g transform="matrix(1, 0, 0, 1, 428.5, 139.5)" filter="url(#Rectangle_82)">
      <rect id="Rectangle_82-2" data-name="Rectangle 82" width="538" height="451" rx="10" transform="translate(22.5 19.5)" fill="#fff"/>
    </g>
    <text id="Submit_a_Ticket" data-name="Submit a Ticket" transform="translate(655 279)" font-size="20" font-family="SFProDisplay-Regular, SF Pro Display"><tspan x="0" y="19">Submit a Ticket</tspan></text>
    <text id="Description:" transform="translate(475 313)" fill="#a4aeb7" font-size="15" font-family="SFProDisplay-Regular, SF Pro Display" letter-spacing="0.03em"><tspan x="0" y="14">Description:</tspan></text>
    <g id="Rectangle_4" data-name="Rectangle 4" transform="translate(467 336)" fill="#fff" stroke="#cfd4d9" stroke-width="2" opacity="0.48">
      <rect width="506" height="189" rx="5" stroke="none"/>
      <rect x="1" y="1" width="504" height="187" rx="4" fill="none"/>
    </g>
    <g id="Group_4" data-name="Group 4" transform="translate(573.885 189.658)">
      <path id="Path_10" data-name="Path 10" d="M8178.68,27244.848v-16.75h6.42v16.75Zm9.828,0v-16.75h6.324v11.313h6.145v5.438Zm23.178-5.18a2.8,2.8,0,0,0,2.143-.867,3.209,3.209,0,0,0,.811-2.293,3.262,3.262,0,0,0-.811-2.316,3.053,3.053,0,0,0-4.295.008,3.247,3.247,0,0,0-.816,2.309,3.2,3.2,0,0,0,.816,2.293A2.822,2.822,0,0,0,8211.686,27239.668Zm9.4-3.16a8.389,8.389,0,0,1-2.687,6.258,9.37,9.37,0,0,1-3.045,1.879,10.731,10.731,0,0,1-7.348,0,9.16,9.16,0,0,1-3.051-1.906,8.072,8.072,0,0,1-1.98-2.789,8.736,8.736,0,0,1-.672-3.441,8.841,8.841,0,0,1,.672-3.457,8.167,8.167,0,0,1,1.98-2.8,9.139,9.139,0,0,1,3.039-1.883,10.973,10.973,0,0,1,7.389,0,9.29,9.29,0,0,1,3.051,1.883,8.388,8.388,0,0,1,1.973,2.816A8.67,8.67,0,0,1,8221.082,27236.508Zm2.771,8.34v-16.75h6.42v16.75Zm9.828,0v-16.75h6.326v11.313h6.143v5.438Zm23.176-5.18a2.8,2.8,0,0,0,2.143-.867,3.21,3.21,0,0,0,.813-2.293,3.263,3.263,0,0,0-.812-2.316,3.051,3.051,0,0,0-4.293.008,3.246,3.246,0,0,0-.814,2.309,3.194,3.194,0,0,0,.814,2.293A2.821,2.821,0,0,0,8256.857,27239.668Zm9.4-3.16a8.592,8.592,0,0,1-.684,3.422,8.489,8.489,0,0,1-2,2.836,9.381,9.381,0,0,1-3.043,1.879,10.737,10.737,0,0,1-7.35,0,9.169,9.169,0,0,1-3.053-1.906,8.092,8.092,0,0,1-1.979-2.789,8.735,8.735,0,0,1-.67-3.441,8.84,8.84,0,0,1,.67-3.457,8.187,8.187,0,0,1,1.979-2.8,9.187,9.187,0,0,1,3.041-1.883,10.973,10.973,0,0,1,7.389,0,9.319,9.319,0,0,1,3.053,1.883,8.41,8.41,0,0,1,1.971,2.816A8.7,8.7,0,0,1,8266.256,27236.508Z" transform="translate(-8119.363 -27227.723)" fill="red" fill-rule="evenodd"/>
      <path id="Path_11" data-name="Path 11" d="M4479.889,27674.244c1.3.129,2.479.223,3.566.285s2.1.105,3.027.105a57.642,57.642,0,0,0,17.313-2.719,19.292,19.292,0,0,0,4.287-1.84,2.264,2.264,0,0,0,1.215-1.789c0-.949-.95-1.832-2.849-2.664a79.436,79.436,0,0,0-11.346-3.168q-7.752-1.746-10.219-3.3a4.69,4.69,0,0,1-2.482-4.148,19.128,19.128,0,0,1,1.021-6.418,11.064,11.064,0,0,1,2.852-4.582q3.267-2.924,10.834-5.133a53.417,53.417,0,0,1,15.109-2.219,28.484,28.484,0,0,1,7.893.895c2.028.59,3.035,1.324,3.035,2.215a9.191,9.191,0,0,1-.937,4.23,6.169,6.169,0,0,1-2.63,2.73c-.314.176-1.275.594-2.9,1.273s-3.025,1.328-4.23,1.961c-.5.266-1.055.594-1.691,1.008a3.245,3.245,0,0,1-1.32.609.973.973,0,0,1-.648-.2.755.755,0,0,1-.232-.605c0-.648,1.438-1.961,4.334-3.953l.788-.551c-.21,0-.591-.008-1.16-.031s-1.042-.031-1.424-.031a42.666,42.666,0,0,0-15.181,2.574c-4.53,1.707-6.79,3.371-6.79,4.969,0,1.066,2.226,2.18,6.686,3.375q3.809.99,6.257,1.746a31.817,31.817,0,0,1,10.058,4.8q3.722,2.848,3.722,5.668a11.011,11.011,0,0,1-2.006,5.449,13.326,13.326,0,0,1-4.611,4.715,37.529,37.529,0,0,1-10.614,3.625,66.109,66.109,0,0,1-13.73,1.395,26.034,26.034,0,0,1-9.018-1.328q-3.545-1.33-3.545-3.172a8.86,8.86,0,0,1,1.1-2.7,13.94,13.94,0,0,1,2.155-3.2,6.02,6.02,0,0,1,2.562-1.277,21.1,21.1,0,0,1,4.369-.7,5.253,5.253,0,0,1-1.09,1.2A7.022,7.022,0,0,1,4479.889,27674.244Zm53.743-.668a60.026,60.026,0,0,1-6.246,6.789c-1.68,1.48-3,2.219-3.975,2.219-1.285,0-2.49-.77-3.592-2.332a9.369,9.369,0,0,1-1.668-5.617,12.559,12.559,0,0,1,1.413-5.754,28.325,28.325,0,0,1,4.764-6.3,16,16,0,0,1,3.173-2.762,5.089,5.089,0,0,1,2.527-.629,7.889,7.889,0,0,1,2.724.422c.742.27,1.11.609,1.11.973,0,.633-.542,1.59-1.644,2.84s-3.639,3.688-7.626,7.313a21.953,21.953,0,0,0-1,2.371,5.157,5.157,0,0,0-.324,1.645,1.641,1.641,0,0,0,.08.625.3.3,0,0,0,.29.18c.777,0,2.364-.945,4.786-2.832a87.551,87.551,0,0,0,8.124-7.355l.069-.039q8.013-8.18,9.606-8.187a1.078,1.078,0,0,1,.984.707,5.527,5.527,0,0,1-1.021,5.535l-.1.1a43.92,43.92,0,0,0-5.343,6.949c-1.354,2.234-2.027,3.906-2.027,5a1.355,1.355,0,0,0,.5,1.078,1.658,1.658,0,0,0,1.171.441,6.184,6.184,0,0,0,2.919-1.324q1.764-1.219,6.686-5.355v-.016a87.685,87.685,0,0,0,11.033-12.531c1.042-1.379,1.807-2.4,2.3-3.047a14.078,14.078,0,0,1,3.349-3.238,5.919,5.919,0,0,1,3.246-1,3.105,3.105,0,0,1,1.608.371,1.087,1.087,0,0,1,.627.957c0,.691-.916,2.117-2.734,4.3a51.534,51.534,0,0,0-4.5,6.1l-3.7,6.059a48.719,48.719,0,0,1,7.892-6.059c2.605-1.578,4.507-2.363,5.678-2.363a2.538,2.538,0,0,1,1.9.625,2.845,2.845,0,0,1,.613,2.027,13.7,13.7,0,0,1-2.629,7.219,40.64,40.64,0,0,1-7.521,8.293,2.545,2.545,0,0,0,.348.066,7.252,7.252,0,0,0,1.321.254,10.264,10.264,0,0,0,5.295-1.824,45.19,45.19,0,0,0,5.515-4.371,14.136,14.136,0,0,1,1.312-3.652,21.07,21.07,0,0,1,4.612-5.785,23.594,23.594,0,0,1,6.361-4.211,16.342,16.342,0,0,1,6.569-1.426,7.659,7.659,0,0,1,3.742.7,2.39,2.39,0,0,1,1.218,2.211q0,3.369-5.064,7.2a32.039,32.039,0,0,1-12.387,5.516v.32a4.95,4.95,0,0,0,1.228,3.547,4.3,4.3,0,0,0,3.291,1.32,13.793,13.793,0,0,0,6.512-2.168,37.789,37.789,0,0,0,4.472-3.02l4.231-3.91a3.663,3.663,0,0,1-1.262-1.074,2.176,2.176,0,0,1-.406-1.258c0-1.746,1.1-3.75,3.292-5.98s4.02-3.344,5.47-3.344a.888.888,0,0,1,.613.242.8.8,0,0,1,.267.6,2.451,2.451,0,0,1-.2.719c-.139.32-.348.727-.614,1.223l5.771-.352c.141,0,.313-.012.547-.031.879-.07,1.5-.105,1.865-.105a3.254,3.254,0,0,1,2.7,1.086,5.225,5.225,0,0,1,.87,3.293c0,.531-.591,1.328-1.762,2.363-.731.6-1.286,1.1-1.668,1.48a21.59,21.59,0,0,0-3.244,4.18,7.514,7.514,0,0,0-1.275,3.461,2.129,2.129,0,0,0,.463,1.48,1.762,1.762,0,0,0,1.366.492,7.151,7.151,0,0,0,3.326-1.633q1.579-1.107,4.468-3.543a7.211,7.211,0,0,1,.18-.746,14.91,14.91,0,0,1,2.052-3.758,35.287,35.287,0,0,1,4.194-5.293,4.424,4.424,0,0,1,2.966-1.4,7.569,7.569,0,0,1,2.735.344,1.143,1.143,0,0,1,.8,1.113c0,.824-1.541,2.953-4.611,6.41-1.253,1.406-2.236,2.508-2.956,3.34l-.139,2.2q10.466-10.113,13.94-12.742t5.378-2.641a2.418,2.418,0,0,1,1.784.66,2.442,2.442,0,0,1,.66,1.8q0,2.291-5.063,9.906c-.511.785-.915,1.391-1.181,1.82q6.916-6.281,11.272-9.7t5.388-3.418c.419,0,.962.5,1.635,1.516a5.032,5.032,0,0,1,1.02,2.727c0,.645-.718,1.789-2.143,3.426-.36.43-.639.777-.848,1.008a30.784,30.784,0,0,0-2.987,3.934,5.715,5.715,0,0,0-.986,2.641,1.346,1.346,0,0,0,.5,1.02,1.685,1.685,0,0,0,1.17.438,6.807,6.807,0,0,0,3.326-1.391q1.434-.949,4.211-3.258a10.012,10.012,0,0,1,1.687-3.621,23.941,23.941,0,0,1,5.029-5.129,34.374,34.374,0,0,1,5.156-3.379,42.612,42.612,0,0,1,6.049-2.648,43.867,43.867,0,0,1,4.392-1.363,15.257,15.257,0,0,1,2.909-.516,3.167,3.167,0,0,1,2.226,1.18,3.415,3.415,0,0,1,1.1,2.223.782.782,0,0,1-.255.574,4.66,4.66,0,0,1-1,.621l-1.264.719,1.194,2.328a3.579,3.579,0,0,1,.324.711,1.987,1.987,0,0,1,.08.551c0,.5-.892,1.969-2.666,4.426-1.771,2.438-2.663,4.344-2.663,5.7a1.4,1.4,0,0,0,.52,1.18,2.337,2.337,0,0,0,1.484.406,7.3,7.3,0,0,0,3.662-1.4,36.839,36.839,0,0,0,3.535-2.684l3.394-3.129a3.645,3.645,0,0,1-1.262-1.074,2.17,2.17,0,0,1-.407-1.258c0-1.746,1.1-3.75,3.291-5.98s4.021-3.344,5.47-3.344a.886.886,0,0,1,.614.242.8.8,0,0,1,.267.6,2.44,2.44,0,0,1-.2.719c-.138.32-.348.727-.614,1.227l5.771-.355c.139,0,.312-.012.546-.031.878-.07,1.5-.105,1.864-.105a3.261,3.261,0,0,1,2.7,1.086,5.244,5.244,0,0,1,.868,3.293c0,.531-.592,1.328-1.764,2.363-.729.6-1.285,1.1-1.667,1.48a21.635,21.635,0,0,0-3.245,4.18,7.544,7.544,0,0,0-1.274,3.461,2.125,2.125,0,0,0,.464,1.48,1.749,1.749,0,0,0,1.368.492,7.156,7.156,0,0,0,3.324-1.633q2.076-1.453,6.408-5.207,2.394-2.4,4.229-4.441c1.332-1.469,2.538-2.906,3.627-4.285-.718-.1-1.379-.187-1.979-.246-.6-.039-1.138-.078-1.613-.078h-1.4a1.024,1.024,0,0,1-.534-.1.325.325,0,0,1-.173-.316,7.181,7.181,0,0,1,1.507-2.816,11.65,11.65,0,0,1,2.734-2.953,6.251,6.251,0,0,1,2.479-.852,34.055,34.055,0,0,1,4.624-.34c.222-.277.521-.668.915-1.164,2.422-3.148,4.937-4.727,7.567-4.727a1.671,1.671,0,0,1,1.02.313.839.839,0,0,1,.44.7,1.854,1.854,0,0,1-.209.84,3.4,3.4,0,0,1-.637.871l-2.886,3.3a10.115,10.115,0,0,1,2.643.422c.638.211.95.477.95.77a6.305,6.305,0,0,1-1.309,2.223,21.976,21.976,0,0,1-3,3.281,6.142,6.142,0,0,1-1.9,1.219,6.632,6.632,0,0,1-2.2.3c-.683,0-1.158,0-1.425-.008s-.5-.02-.684-.02a30.794,30.794,0,0,0-4.611,7.219,16.4,16.4,0,0,0-1.7,6.523,2.088,2.088,0,0,0,.486,1.492,1.828,1.828,0,0,0,1.378.52q1.427,0,4.451-2.023a97.553,97.553,0,0,0,8.146-6.387l.07,2.84a67.606,67.606,0,0,1-10.07,8.7c-2.989,2.02-5.457,3.027-7.381,3.027a4.336,4.336,0,0,1-3.141-1.078,4.19,4.19,0,0,1-1.1-3.1,12.167,12.167,0,0,1,.649-3.668,22.727,22.727,0,0,1,1.832-4.2c-.257.172-.522.363-.812.559-.175.129-.4.277-.667.457a84.447,84.447,0,0,1-8.522,7.922q-3.549,2.713-5.62,2.719a4.007,4.007,0,0,1-3.14-1.5,5.394,5.394,0,0,1-1.311-3.691,11.048,11.048,0,0,1,1.611-5.574,33.633,33.633,0,0,1,5.481-6.621c-1.624.363-2.979.641-4.033.828s-2.074.328-3.025.469l-.915.93q-3.873,3.908-5.872,5.676a85.366,85.366,0,0,1-8.033,7.523q-2.8,2.086-4.763,2.09a3.578,3.578,0,0,1-2.687-1.137,3.971,3.971,0,0,1-1.089-2.84,26.575,26.575,0,0,1,1.633-6.426l.036-.121a81.934,81.934,0,0,1-7.558,6.867c-1.979,1.512-3.463,2.262-4.46,2.262-.915,0-2.062-1.105-3.463-3.312a14.3,14.3,0,0,1-1.822-4,65.886,65.886,0,0,1-7.194,6.7,9.174,9.174,0,0,1-5.18,2.082,4.636,4.636,0,0,1-3.071-.934,3.158,3.158,0,0,1-1.1-2.559,12.479,12.479,0,0,1,1.783-5.5,52.993,52.993,0,0,1,5.181-7.652,97.848,97.848,0,0,0-10.5,9.891q-5.319,5.748-6.886,5.746a3.041,3.041,0,0,1-2.152-.664,2.809,2.809,0,0,1-.7-2.121,11.29,11.29,0,0,1,1.52-4.637q1.529-2.947,6.56-10.48a65.062,65.062,0,0,0-11.173,11.168q-5.058,6.416-6.28,6.414c-1,0-1.83-.719-2.5-2.164a13,13,0,0,1-.981-4.879,68.3,68.3,0,0,1-6.075,5.449q-3.546,2.713-5.621,2.719a4.011,4.011,0,0,1-3.14-1.5,5.4,5.4,0,0,1-1.309-3.691,11.066,11.066,0,0,1,1.61-5.574,33.6,33.6,0,0,1,5.481-6.621c-1.624.363-2.979.641-4.034.828s-2.073.328-3.024.469l-.915.93q-3.006,3.035-4.883,4.777a48.2,48.2,0,0,1-8.838,7.48,15.591,15.591,0,0,1-8.146,2.641,7.322,7.322,0,0,1-5.827-2.3,9.024,9.024,0,0,1-1.984-5.527,56.247,56.247,0,0,1-7.147,5.707q-4.695,3.094-7.752,3.094a11.593,11.593,0,0,1-3.164-.414,8.28,8.28,0,0,1-2.571-1.133c-.418.078-.835.152-1.264.219a8.932,8.932,0,0,1-1.288.1,5.823,5.823,0,0,1-1.09-.113,9.9,9.9,0,0,1-1.214-.309,132.175,132.175,0,0,1-5.864,12.5c-1.321,2.289-2.4,3.426-3.233,3.426a1.375,1.375,0,0,1-1.2-.707,3.532,3.532,0,0,1-.465-1.945,20,20,0,0,1,1.346-7.219,28,28,0,0,1,4.218-7.18,1.264,1.264,0,0,0,.1-.137,35.277,35.277,0,0,0,4.078-6.27l5.329-10.023c-.972,1.078-2.085,2.234-3.324,3.465-1.137,1.125-2.589,2.488-4.372,4.105a88.777,88.777,0,0,1-9.175,8.891c-2.108,1.6-3.894,2.41-5.365,2.41a3.943,3.943,0,0,1-4.183-4.176,11.032,11.032,0,0,1,.475-2.875A28.1,28.1,0,0,1,4533.632,27673.576Zm24.172,3.328c.289-.039.777-.109,1.461-.184a12.4,12.4,0,0,1,1.494-.133,6.247,6.247,0,0,1,.984.074c.338.059.719.133,1.147.242a61.831,61.831,0,0,0,5.249-6.109,6.834,6.834,0,0,0,1.577-3.312,1.916,1.916,0,0,0-.105-.75.443.443,0,0,0-.371-.262c-1.158,0-2.838.965-5.062,2.9A36.771,36.771,0,0,0,4557.8,27676.9Zm28.473-7.1a48.147,48.147,0,0,0,8.679-4.645q3.145-2.256,3.14-3.781a1.058,1.058,0,0,0-.115-.566.406.406,0,0,0-.359-.176q-2.174,0-5.668,2.621A20.612,20.612,0,0,0,4586.276,27669.807Zm105.39-7.9q-11.124,4.559-14.428,7.141c-2.189,1.711-3.29,3.625-3.29,5.715a2.382,2.382,0,0,0,.335,1.293,1.016,1.016,0,0,0,.858.523q1.688,0,6.569-4.2A81.575,81.575,0,0,0,4691.666,27661.908Z" transform="translate(-4472.321 -27629.893)" fill="red" fill-rule="evenodd"/>
      <path id="Path_12" data-name="Path 12" d="M21994.758,27995.6a4.752,4.752,0,0,1-8.863,2.375,4.773,4.773,0,0,1,0-4.75,4.758,4.758,0,0,1,6.484-1.734,4.593,4.593,0,0,1,1.734,1.734A4.685,4.685,0,0,1,21994.758,27995.6Zm-.926,0a3.834,3.834,0,0,0-3.828-3.832,3.831,3.831,0,1,0,3.828,3.832Zm-5.98-2.535h2.27a2.024,2.024,0,0,1,1.395.391,1.332,1.332,0,0,1,.438,1.035,1.305,1.305,0,0,1-.328.887,2.059,2.059,0,0,1-1.043.539,1.414,1.414,0,0,1,.434.238,2.6,2.6,0,0,1,.4.516c.008.016.281.5.816,1.465h-1.5a10.414,10.414,0,0,0-.969-1.73.68.68,0,0,0-.5-.285.958.958,0,0,0-.16.023v1.992h-1.258Zm1.258,2.148h.555a1.25,1.25,0,0,0,.766-.18.54.54,0,0,0,.227-.449.574.574,0,0,0-.207-.465,1.214,1.214,0,0,0-.738-.176h-.6Z" transform="translate(-21702.527 -27978.557)" fill="red"/>
    </g>
    <g id="Group_664" data-name="Group 664" transform="translate(592 123.447)">
      <g transform="matrix(1, 0, 0, 1, -163.5, 16.05)" filter="url(#Rectangle_138)">
        <rect id="Rectangle_138-2" data-name="Rectangle 138" width="212" height="36" rx="5" transform="translate(186.5 405.95)" fill="red"/>
      </g>
      <text id="Submit" transform="translate(97 430)" fill="#fff" font-size="17" font-family="SFProDisplay-Bold, SF Pro Display" font-weight="700" letter-spacing="0.05em"><tspan x="0" y="16">Submit</tspan></text>
    </g>
  </g>
</svg>
