<svg xmlns="http://www.w3.org/2000/svg" xmlns:xlink="http://www.w3.org/1999/xlink" width="512" height="329" viewBox="0 0 512 329">
  <defs>
    <filter id="Rectangle_138" x="140" y="254" width="230" height="54" filterUnits="userSpaceOnUse">
      <feOffset dy="3" input="SourceAlpha"/>
      <feGaussianBlur stdDeviation="3" result="blur"/>
      <feFlood flood-opacity="0.161"/>
      <feComposite operator="in" in2="blur"/>
      <feComposite in="SourceGraphic"/>
    </filter>
  </defs>
  <g id="Group_736" data-name="Group 736" transform="translate(-484 -287)">
    <g id="Rectangle_139" data-name="Rectangle 139" transform="translate(484 287)" fill="#fff" stroke="#707070" stroke-width="1">
      <rect width="512" height="329" rx="15" stroke="none"/>
      <rect x="0.5" y="0.5" width="511" height="328" rx="14.5" fill="none"/>
    </g>
    <text id="Your_ticket_has_been_successfully_created_" data-name="Your ticket has been successfully created!" transform="translate(597 490)" fill="#223e58" font-size="15" font-family="SFProDisplay-Regular, SF Pro Display" letter-spacing="0.03em"><tspan x="0" y="14">Your ticket has been successfully created!</tspan></text>
    <g id="Group_664" data-name="Group 664" transform="translate(610 125)">
      <g transform="matrix(1, 0, 0, 1, -126, 162)" filter="url(#Rectangle_138)">
        <rect id="Rectangle_138-2" data-name="Rectangle 138" width="212" height="36" rx="5" transform="translate(149 260)" fill="red"/>
      </g>
      <text id="Close" transform="translate(100 430)" fill="#fff" font-size="17" font-family="SFProDisplay-Bold, SF Pro Display" font-weight="700" letter-spacing="0.05em"><tspan x="0" y="16">Close</tspan></text>
    </g>
    <text id="Ticket_created_0000015" data-name="Ticket created 0000015" transform="translate(620 427)" fill="red" font-size="20" font-family="SFProDisplay-Medium, SF Pro Display" font-weight="500" letter-spacing="0.065em"><tspan x="0" y="19">Ticket created 0000015</tspan></text>
    <g id="Icon_feather-check-square" data-name="Icon feather-check-square" transform="translate(697 335.5)">
      <path id="Path_168" data-name="Path 168" d="M13.5,33.263,25.184,44.947,64.132,6" transform="translate(14.368 2.395)" fill="none" stroke="red" stroke-linecap="round" stroke-linejoin="round" stroke-width="3"/>
      <path id="Path_169" data-name="Path 169" d="M74.605,39.553V66.816a7.789,7.789,0,0,1-7.789,7.789H12.289A7.789,7.789,0,0,1,4.5,66.816V12.289A7.789,7.789,0,0,1,12.289,4.5H55.132" transform="translate(0 0)" fill="none" stroke="red" stroke-linecap="round" stroke-linejoin="round" stroke-width="3"/>
    </g>
  </g>
</svg>
