<svg xmlns="http://www.w3.org/2000/svg" width="221.463" height="52.211" viewBox="0 0 221.463 52.211">
  <g id="Group_4" data-name="Group 4" transform="translate(0 0)">
    <path id="Path_10" data-name="Path 10" d="M8178.68,27240.7V27228h4.865v12.7Zm7.447,0V27228h4.793v8.574h4.658v4.121Zm17.566-3.926a2.118,2.118,0,0,0,1.623-.656,2.432,2.432,0,0,0,.615-1.736,2.474,2.474,0,0,0-.615-1.756,2.308,2.308,0,0,0-3.254.006,2.454,2.454,0,0,0-.619,1.75,2.417,2.417,0,0,0,.619,1.736A2.138,2.138,0,0,0,8203.693,27236.773Zm7.121-2.393a6.348,6.348,0,0,1-2.037,4.742,7.13,7.13,0,0,1-2.307,1.424,8.157,8.157,0,0,1-5.57,0,7,7,0,0,1-2.311-1.443,6.17,6.17,0,0,1-1.5-2.117,6.6,6.6,0,0,1-.51-2.605,6.67,6.67,0,0,1,.51-2.619,6.18,6.18,0,0,1,1.5-2.125,6.827,6.827,0,0,1,2.3-1.428,8.3,8.3,0,0,1,5.6,0,6.918,6.918,0,0,1,2.311,1.428,6.3,6.3,0,0,1,1.5,2.133A6.539,6.539,0,0,1,8210.814,27234.381Zm2.1,6.318V27228h4.865v12.7Zm7.449,0V27228h4.793v8.574h4.656v4.121Zm17.563-3.926a2.125,2.125,0,0,0,1.625-.656,2.44,2.44,0,0,0,.615-1.736,2.483,2.483,0,0,0-.615-1.756,2.311,2.311,0,0,0-3.256.006,2.469,2.469,0,0,0-.615,1.75,2.432,2.432,0,0,0,.615,1.736A2.144,2.144,0,0,0,8237.926,27236.773Zm7.123-2.393a6.549,6.549,0,0,1-.518,2.594,6.476,6.476,0,0,1-1.52,2.148,7.109,7.109,0,0,1-2.307,1.424,8.157,8.157,0,0,1-5.57,0,7.007,7.007,0,0,1-2.312-1.443,6.158,6.158,0,0,1-1.5-2.117,6.56,6.56,0,0,1-.508-2.605,6.634,6.634,0,0,1,.508-2.619,6.169,6.169,0,0,1,1.5-2.125,6.873,6.873,0,0,1,2.3-1.428,8.3,8.3,0,0,1,5.6,0,6.994,6.994,0,0,1,2.314,1.428,6.316,6.316,0,0,1,1.492,2.133A6.572,6.572,0,0,1,8245.049,27234.381Z" transform="translate(-8133.728 -27227.723)" fill="red" fill-rule="evenodd"/>
    <path id="Path_11" data-name="Path 11" d="M4478.056,27665.141c.983.1,1.878.168,2.7.217s1.591.08,2.294.08a42.535,42.535,0,0,0,6.647-.531,43.382,43.382,0,0,0,6.473-1.529,14.671,14.671,0,0,0,3.249-1.395,1.718,1.718,0,0,0,.921-1.357c0-.719-.721-1.389-2.159-2.02a60.8,60.8,0,0,0-8.6-2.4q-5.875-1.321-7.744-2.5a3.553,3.553,0,0,1-1.881-3.143,14.487,14.487,0,0,1,.773-4.865,8.394,8.394,0,0,1,2.161-3.473q2.476-2.215,8.21-3.889a40.443,40.443,0,0,1,11.451-1.684,21.54,21.54,0,0,1,5.981.68c1.537.447,2.3,1,2.3,1.678a6.955,6.955,0,0,1-.711,3.207,4.672,4.672,0,0,1-1.992,2.068c-.239.135-.967.451-2.2.967s-2.293,1.006-3.206,1.484c-.377.2-.8.451-1.282.766a2.471,2.471,0,0,1-1,.461.742.742,0,0,1-.491-.154.573.573,0,0,1-.177-.459c0-.49,1.09-1.486,3.285-3l.6-.418c-.159,0-.448-.006-.879-.021s-.79-.025-1.079-.025a32.373,32.373,0,0,0-11.5,1.949q-5.15,1.945-5.146,3.768c0,.809,1.687,1.652,5.066,2.559,1.924.5,3.5.943,4.742,1.322a24.157,24.157,0,0,1,7.622,3.635q2.821,2.159,2.82,4.295a8.336,8.336,0,0,1-1.52,4.131,10.091,10.091,0,0,1-3.495,3.572,28.392,28.392,0,0,1-8.043,2.748,50.2,50.2,0,0,1-10.406,1.057,19.735,19.735,0,0,1-6.834-1.006q-2.687-1.011-2.687-2.4a6.7,6.7,0,0,1,.834-2.049,10.525,10.525,0,0,1,1.633-2.424,4.578,4.578,0,0,1,1.941-.969,16.111,16.111,0,0,1,3.311-.527,3.945,3.945,0,0,1-.826.912A5.246,5.246,0,0,1,4478.056,27665.141Zm40.729-.508a45.429,45.429,0,0,1-4.733,5.146c-1.273,1.121-2.274,1.682-3.012,1.682a3.442,3.442,0,0,1-2.722-1.768,7.094,7.094,0,0,1-1.265-4.256,9.51,9.51,0,0,1,1.071-4.361,21.492,21.492,0,0,1,3.61-4.773,12.144,12.144,0,0,1,2.4-2.092,3.853,3.853,0,0,1,1.916-.477,5.961,5.961,0,0,1,2.064.32c.562.2.841.461.841.736a4.061,4.061,0,0,1-1.246,2.15q-1.252,1.427-5.78,5.545a16.555,16.555,0,0,0-.754,1.795,3.908,3.908,0,0,0-.246,1.246,1.246,1.246,0,0,0,.061.475.228.228,0,0,0,.22.137c.589,0,1.792-.717,3.627-2.148a65.977,65.977,0,0,0,6.157-5.574l.053-.027q6.073-6.2,7.28-6.207a.818.818,0,0,1,.746.537,4.189,4.189,0,0,1-.773,4.2l-.079.076a33.254,33.254,0,0,0-4.049,5.268,8.586,8.586,0,0,0-1.537,3.789,1.023,1.023,0,0,0,.378.814,1.254,1.254,0,0,0,.887.336,4.7,4.7,0,0,0,2.212-1q1.337-.923,5.067-4.059v-.01a66.589,66.589,0,0,0,8.361-9.5c.79-1.045,1.369-1.818,1.747-2.309a10.633,10.633,0,0,1,2.538-2.455,4.486,4.486,0,0,1,2.459-.76,2.354,2.354,0,0,1,1.219.281.822.822,0,0,1,.475.725c0,.523-.694,1.605-2.072,3.256a38.922,38.922,0,0,0-3.407,4.623l-2.8,4.59a36.859,36.859,0,0,1,5.981-4.59c1.974-1.2,3.415-1.791,4.3-1.791a1.921,1.921,0,0,1,1.44.473,2.157,2.157,0,0,1,.465,1.535,10.378,10.378,0,0,1-1.993,5.471,30.784,30.784,0,0,1-5.7,6.285,1.656,1.656,0,0,0,.264.051,5.561,5.561,0,0,0,1,.193,7.791,7.791,0,0,0,4.013-1.383,34.538,34.538,0,0,0,4.18-3.312,10.681,10.681,0,0,1,.994-2.768,15.954,15.954,0,0,1,3.5-4.385,17.924,17.924,0,0,1,4.821-3.193,12.407,12.407,0,0,1,4.979-1.078,5.8,5.8,0,0,1,2.836.533,1.807,1.807,0,0,1,.923,1.674c0,1.7-1.281,3.518-3.838,5.459a24.27,24.27,0,0,1-9.387,4.18v.242a3.746,3.746,0,0,0,.93,2.688,3.25,3.25,0,0,0,2.494,1,10.454,10.454,0,0,0,4.935-1.645,28.54,28.54,0,0,0,3.389-2.287l3.207-2.961a2.821,2.821,0,0,1-.956-.816,1.646,1.646,0,0,1-.308-.953c0-1.322.834-2.84,2.495-4.531s3.046-2.535,4.146-2.535a.669.669,0,0,1,.464.184.611.611,0,0,1,.2.453,1.849,1.849,0,0,1-.15.545c-.1.242-.263.551-.465.928l4.373-.268c.107,0,.237-.008.415-.025.666-.053,1.141-.078,1.414-.078a2.467,2.467,0,0,1,2.045.824,3.958,3.958,0,0,1,.659,2.494c0,.4-.447,1.008-1.335,1.793a16.763,16.763,0,0,0-1.264,1.121,16.33,16.33,0,0,0-2.458,3.168,5.684,5.684,0,0,0-.966,2.621,1.617,1.617,0,0,0,.351,1.123,1.337,1.337,0,0,0,1.035.373,5.411,5.411,0,0,0,2.521-1.238c.8-.559,1.926-1.457,3.386-2.684a5.485,5.485,0,0,1,.136-.566,11.318,11.318,0,0,1,1.555-2.848,26.639,26.639,0,0,1,3.179-4.012,3.35,3.35,0,0,1,2.248-1.062,5.759,5.759,0,0,1,2.073.26.868.868,0,0,1,.605.846c0,.623-1.168,2.236-3.495,4.855-.949,1.066-1.695,1.9-2.24,2.531l-.1,1.668q7.931-7.667,10.564-9.656t4.075-2a1.83,1.83,0,0,1,1.353.5,1.849,1.849,0,0,1,.5,1.365q0,1.737-3.837,7.508c-.387.594-.694,1.053-.895,1.379q5.24-4.758,8.542-7.352t4.083-2.59q.476,0,1.239,1.15a3.8,3.8,0,0,1,.772,2.066c0,.486-.544,1.355-1.624,2.6-.273.324-.484.59-.642.762a23.487,23.487,0,0,0-2.264,2.982,4.33,4.33,0,0,0-.748,2,1.025,1.025,0,0,0,.378.773,1.274,1.274,0,0,0,.887.33,5.15,5.15,0,0,0,2.521-1.051q1.087-.721,3.191-2.471a7.57,7.57,0,0,1,1.278-2.742,18.135,18.135,0,0,1,3.812-3.889,26.093,26.093,0,0,1,3.908-2.561,32.374,32.374,0,0,1,4.583-2.008,32.958,32.958,0,0,1,3.329-1.031,11.507,11.507,0,0,1,2.2-.393,2.4,2.4,0,0,1,1.687.895,2.593,2.593,0,0,1,.833,1.684.6.6,0,0,1-.193.438,3.559,3.559,0,0,1-.754.469l-.958.545.905,1.766a2.671,2.671,0,0,1,.246.539,1.49,1.49,0,0,1,.061.416c0,.379-.676,1.492-2.021,3.354s-2.019,3.293-2.019,4.32a1.054,1.054,0,0,0,.394.893,1.759,1.759,0,0,0,1.125.309,5.514,5.514,0,0,0,2.775-1.061,27.9,27.9,0,0,0,2.679-2.033l2.572-2.369a2.809,2.809,0,0,1-.957-.816,1.643,1.643,0,0,1-.308-.953c0-1.322.834-2.84,2.494-4.531s3.047-2.535,4.145-2.535a.667.667,0,0,1,.466.184.611.611,0,0,1,.2.453,1.843,1.843,0,0,1-.15.545c-.1.242-.263.551-.465.93l4.374-.27c.105,0,.236-.008.414-.025.666-.053,1.141-.078,1.413-.078a2.471,2.471,0,0,1,2.047.824,3.97,3.97,0,0,1,.658,2.494c0,.4-.448,1.008-1.336,1.793-.552.451-.974.83-1.264,1.121a16.352,16.352,0,0,0-2.459,3.168,5.7,5.7,0,0,0-.966,2.621,1.615,1.615,0,0,0,.351,1.123,1.332,1.332,0,0,0,1.037.373,5.418,5.418,0,0,0,2.52-1.238q1.573-1.1,4.856-3.947,1.814-1.819,3.206-3.365c1.01-1.113,1.923-2.2,2.749-3.246-.544-.078-1.045-.143-1.5-.187-.458-.029-.862-.059-1.223-.059h-1.062a.76.76,0,0,1-.4-.078.243.243,0,0,1-.131-.238,5.426,5.426,0,0,1,1.142-2.135,8.835,8.835,0,0,1,2.072-2.238,4.715,4.715,0,0,1,1.878-.645,25.6,25.6,0,0,1,3.5-.26c.168-.209.395-.506.694-.881,1.835-2.385,3.741-3.582,5.734-3.582a1.261,1.261,0,0,1,.773.238.634.634,0,0,1,.333.525,1.407,1.407,0,0,1-.158.637,2.552,2.552,0,0,1-.483.66l-2.187,2.506a7.64,7.64,0,0,1,2,.318c.483.16.72.359.72.582a4.775,4.775,0,0,1-.992,1.686,16.587,16.587,0,0,1-2.275,2.486,4.653,4.653,0,0,1-1.439.924,5.016,5.016,0,0,1-1.669.232c-.518,0-.878,0-1.08-.006s-.378-.018-.518-.018a23.362,23.362,0,0,0-3.495,5.473,12.421,12.421,0,0,0-1.292,4.943,1.587,1.587,0,0,0,.369,1.131,1.387,1.387,0,0,0,1.044.393,7.336,7.336,0,0,0,3.373-1.533,73.135,73.135,0,0,0,6.173-4.84l.053,2.152a51.352,51.352,0,0,1-7.632,6.594c-2.265,1.529-4.135,2.293-5.593,2.293a3.288,3.288,0,0,1-2.38-.816,3.175,3.175,0,0,1-.835-2.348,9.223,9.223,0,0,1,.492-2.781,17.242,17.242,0,0,1,1.388-3.182c-.194.131-.4.275-.615.424-.132.1-.3.209-.506.346a64.016,64.016,0,0,1-6.458,6q-2.69,2.057-4.259,2.061a3.033,3.033,0,0,1-2.38-1.135,4.081,4.081,0,0,1-.993-2.795,8.384,8.384,0,0,1,1.221-4.227,25.461,25.461,0,0,1,4.154-5.018c-1.23.275-2.258.486-3.057.629s-1.572.248-2.293.355l-.693.7q-2.936,2.962-4.45,4.3a64.5,64.5,0,0,1-6.088,5.7,6.5,6.5,0,0,1-3.609,1.582,2.705,2.705,0,0,1-2.037-.861,3.006,3.006,0,0,1-.825-2.15,20.16,20.16,0,0,1,1.237-4.871l.028-.092a62.08,62.08,0,0,1-5.728,5.205c-1.5,1.146-2.625,1.713-3.38,1.713-.693,0-1.562-.836-2.625-2.51a10.833,10.833,0,0,1-1.381-3.033,49.841,49.841,0,0,1-5.453,5.076,6.946,6.946,0,0,1-3.925,1.578,3.524,3.524,0,0,1-2.328-.707,2.393,2.393,0,0,1-.833-1.939,9.453,9.453,0,0,1,1.352-4.168,40.073,40.073,0,0,1,3.926-5.8,74.014,74.014,0,0,0-7.957,7.494q-4.031,4.356-5.218,4.355a2.3,2.3,0,0,1-1.631-.5,2.126,2.126,0,0,1-.528-1.607,8.561,8.561,0,0,1,1.151-3.514q1.159-2.235,4.972-7.941a49.29,49.29,0,0,0-8.468,8.463q-3.833,4.86-4.759,4.859c-.754,0-1.387-.543-1.9-1.639a9.866,9.866,0,0,1-.744-3.7,51.882,51.882,0,0,1-4.6,4.129q-2.687,2.057-4.26,2.061a3.034,3.034,0,0,1-2.379-1.135,4.084,4.084,0,0,1-.992-2.795,8.392,8.392,0,0,1,1.22-4.227,25.438,25.438,0,0,1,4.154-5.018c-1.23.275-2.257.486-3.057.629s-1.571.248-2.292.355l-.693.7q-2.279,2.3-3.7,3.621a36.421,36.421,0,0,1-6.7,5.668,11.816,11.816,0,0,1-6.173,2,5.553,5.553,0,0,1-4.416-1.74,6.844,6.844,0,0,1-1.5-4.189,42.651,42.651,0,0,1-5.417,4.326q-3.558,2.344-5.875,2.344a8.721,8.721,0,0,1-2.4-.314,6.227,6.227,0,0,1-1.949-.859c-.316.061-.633.117-.958.168a6.841,6.841,0,0,1-.977.076,4.379,4.379,0,0,1-.826-.086,7.769,7.769,0,0,1-.92-.232,100.031,100.031,0,0,1-4.444,9.471c-1,1.736-1.818,2.6-2.45,2.6a1.041,1.041,0,0,1-.913-.533,2.679,2.679,0,0,1-.353-1.475,15.158,15.158,0,0,1,1.021-5.473,21.158,21.158,0,0,1,3.2-5.439.931.931,0,0,0,.079-.1,26.718,26.718,0,0,0,3.09-4.752l4.039-7.6c-.736.816-1.58,1.693-2.519,2.625-.861.854-1.962,1.887-3.313,3.113a67.368,67.368,0,0,1-6.953,6.736,7.3,7.3,0,0,1-4.065,1.826,2.988,2.988,0,0,1-3.17-3.164,8.386,8.386,0,0,1,.359-2.18A21.391,21.391,0,0,1,4518.785,27664.633Zm18.318,2.523c.219-.029.589-.082,1.107-.139a9.3,9.3,0,0,1,1.133-.1,4.779,4.779,0,0,1,.746.055c.256.045.545.1.87.184a46.717,46.717,0,0,0,3.978-4.631,5.176,5.176,0,0,0,1.2-2.51,1.454,1.454,0,0,0-.08-.568.336.336,0,0,0-.281-.2c-.877,0-2.151.732-3.836,2.2A27.925,27.925,0,0,0,4537.1,27667.156Zm21.578-5.379a36.568,36.568,0,0,0,6.577-3.52q2.383-1.711,2.38-2.865a.815.815,0,0,0-.088-.432.309.309,0,0,0-.272-.133q-1.647,0-4.295,1.988A15.584,15.584,0,0,0,4558.682,27661.777Zm79.868-5.986q-8.429,3.454-10.934,5.412a5.525,5.525,0,0,0-2.493,4.332,1.8,1.8,0,0,0,.254.979.767.767,0,0,0,.65.4q1.279,0,4.979-3.178A61.956,61.956,0,0,0,4638.55,27655.791Z" transform="translate(-4472.321 -27631.527)" fill="red" fill-rule="evenodd"/>
    <path id="Path_12" data-name="Path 12" d="M21992.459,27994.455a3.554,3.554,0,0,1-.488,1.8,3.49,3.49,0,0,1-1.314,1.313,3.6,3.6,0,0,1-4.914-1.312,3.628,3.628,0,0,1,0-3.6,3.608,3.608,0,0,1,4.914-1.314,3.481,3.481,0,0,1,1.314,1.314A3.561,3.561,0,0,1,21992.459,27994.455Zm-.7,0a2.9,2.9,0,0,0-2.9-2.9,2.9,2.9,0,1,0,2.9,2.9Zm-4.531-1.92h1.723a1.537,1.537,0,0,1,1.055.295,1.01,1.01,0,0,1,.332.785.976.976,0,0,1-.25.672,1.556,1.556,0,0,1-.789.41,1.01,1.01,0,0,1,.328.18,1.94,1.94,0,0,1,.3.391q.009.018.619,1.109h-1.133a8.2,8.2,0,0,0-.734-1.311.523.523,0,0,0-.379-.217.7.7,0,0,0-.121.018v1.51h-.955Zm.955,1.627h.42a.958.958,0,0,0,.58-.135.406.406,0,0,0,.17-.34.436.436,0,0,0-.156-.354.925.925,0,0,0-.559-.133h-.455Z" transform="translate(-21770.996 -27981.539)" fill="red"/>
  </g>
</svg>
